<svg xmlns="http://www.w3.org/2000/svg" width="70" height="70" viewBox="0 0 70 70" fill="none"><path d="M41.458 54.419c0-7.597 6.534-13.622 14.163-12.933v-11.78h-20V65h11.303c-3.306-2.356-5.466-6.221-5.466-10.581zM29.74 29.706h3.53V65h-3.53V29.707zM7.386 61.471a3.53 3.53 0 003.53 3.53h16.47V29.706h-20v31.765zm30.588-34.118h18.824c.65 0 1.176-.526 1.176-1.176v-8.235c0-.65-.526-1.177-1.176-1.177H37.974v10.588zM27.386 16.765h8.235v10.196h-8.235V16.765zm-2.353 0H6.21c-.65 0-1.177.527-1.177 1.177v8.235c0 .65.527 1.176 1.177 1.176h18.823V16.765zm-6.47-2.353h11.764l-6.811-7.266A6.789 6.789 0 0018.563 5a4.708 4.708 0 00-4.706 4.706 4.708 4.708 0 004.706 4.706zm17.85-7.423a7.054 7.054 0 00-9.82 0l4.91 5.238 4.91-5.238zm8.032 7.423a4.707 4.707 0 004.706-4.706A4.708 4.708 0 0044.445 5c-1.877 0-3.67.777-4.953 2.146l-6.812 7.266h11.765z" fill="#55CA83"/><path d="M46.172 47.804a10.537 10.537 0 00-2.25 5.432h3.564a7.017 7.017 0 011.209-2.91l-2.523-2.522zm14.023 10.695l2.522 2.522a10.536 10.536 0 002.25-5.432h-3.563a7.02 7.02 0 01-1.209 2.91zm-4.574-11.046a7.02 7.02 0 012.91 1.21l2.522-2.523a10.537 10.537 0 00-5.432-2.25v3.563zm-11.7 8.136a10.536 10.536 0 002.251 5.432l2.523-2.522a7.017 7.017 0 01-1.21-2.91h-3.563zm9.347-8.136V43.89a10.538 10.538 0 00-5.432 2.25l2.522 2.522a7.02 7.02 0 012.91-1.209zm2.353 13.918v3.564a10.537 10.537 0 005.432-2.25l-2.522-2.522a7.019 7.019 0 01-2.91 1.208zm-1.176-2.253a4.706 4.706 0 100-9.412 4.706 4.706 0 000 9.412zm6.959-5.882h3.564a10.537 10.537 0 00-2.25-5.432l-2.522 2.522a7.02 7.02 0 011.209 2.91zm-13.567 9.448a10.537 10.537 0 005.432 2.25v-3.563a7.017 7.017 0 01-2.91-1.209l-2.522 2.522z" fill="#55CA83"/></svg>