<svg xmlns="http://www.w3.org/2000/svg" width="70" height="70" viewBox="0 0 70 70" fill="none"><path d="M50.22 12.871a.83.83 0 111.66-.004.83.83 0 01-1.66.004zm6.626 6.623a.829.829 0 101.657 0 .829.829 0 00-1.657 0zm6.462 30.28a2.392 2.392 0 00-1.225-1.398 2.273 2.273 0 00-1.763-.104l-1.428.505c-.098.42-.21.83-.344 1.223-.29.869-.69 1.697-1.19 2.464l6.073-2.095a2.413 2.413 0 00-.123-.596zM1.094 67.34h6.898V43.778H1.094V67.34zM38.12 17.007a3.245 3.245 0 01.524-2.748l1.663-2.29a.996.996 0 00.205-.635V8.498c0-.124.008-.248.022-.371a6.773 6.773 0 01-1.412.054c-1.729.122-3.22-.486-4.538-1.023-2.315-.944-3.887-1.586-6.302 1.207l4.075 8.642h5.763zM31.374 45.2c-2.938-2.384-6.202-3.557-9.971-3.59A28.802 28.802 0 0126.1 30.072c2.674-3.8 5.866-5.979 8.756-5.979h5.666a3.252 3.252 0 002.25 2.885l2.694.875c.22.067.411.205.543.393l1.666 2.297a3.222 3.222 0 003.656 1.187l1.57-.509c3.673 5.866 5.177 13.348 3.575 18.079-.707 2.09-1.972 3.58-3.764 4.446a5.153 5.153 0 00-4.417-2.502h-4.96c-3.04 0-5.665-.931-8.025-2.847L31.374 45.2zm10.184-1.937c0 1.118-1.093 2.028-2.436 2.028-1.344 0-2.437-.91-2.437-2.028a1.094 1.094 0 10-2.187 0c0 1.98 1.507 3.646 3.53 4.095v.945a1.094 1.094 0 102.188 0v-.945c2.023-.449 3.53-2.114 3.53-4.094 0-3.262-2.646-3.82-4.398-4.188-1.972-.415-2.663-.682-2.663-2.05 0-1.116 1.094-2.024 2.437-2.024 1.343 0 2.436.907 2.436 2.023a1.094 1.094 0 102.188 0c0-1.978-1.507-3.642-3.53-4.09v-.945a1.094 1.094 0 00-2.188 0v.945c-2.023.448-3.53 2.112-3.53 4.09 0 3.265 2.648 3.823 4.4 4.192 1.97.414 2.66.681 2.66 2.046zM65.44 51.99l-11.998 4.14a5.159 5.159 0 01-5.146 5.42H31.073a1.094 1.094 0 010-2.188h17.222a2.966 2.966 0 000-5.931h-4.96c-3.562 0-6.638-1.092-9.404-3.337l-3.936-3.196c-2.574-2.088-5.437-3.103-8.752-3.103-2.618 0-3.844.624-5.029 1.227-1.067.543-2.17 1.104-3.978 1.104h-2.057v18.87h.564a9.826 9.826 0 014.03.823l1.495.643a7.577 7.577 0 003.169.651c.708 0 1.768.017 2.995.037 5.04.082 14.42.236 16.8-.585l27.912-9.631a2.616 2.616 0 001.105-4.205 2.616 2.616 0 00-2.81-.739zM40.412 15.548l1.667-2.296c.41-.555.629-1.228.621-1.918V8.498a1.056 1.056 0 01.75-1.031l2.697-.877a3.162 3.162 0 001.631-1.186l1.665-2.29a1.057 1.057 0 011.213-.397l2.693.875c.656.22 1.366.22 2.022.001l2.696-.876a1.052 1.052 0 011.211.397l1.665 2.288c.4.565.977.982 1.639 1.188l2.69.876a1.056 1.056 0 01.75 1.031v2.837a3.172 3.172 0 00.627 1.92l1.666 2.295a1.055 1.055 0 010 1.272l-1.668 2.292a3.218 3.218 0 00-.625 1.923v2.831a1.051 1.051 0 01-.75 1.031l-2.69.876c-.66.21-1.234.626-1.638 1.188l-1.667 2.296a1.05 1.05 0 01-1.212.39l-2.692-.871a3.19 3.19 0 00-2.021 0l-2.696.872a1.056 1.056 0 01-1.212-.392l-1.668-2.297a3.227 3.227 0 00-1.632-1.184l-2.698-.88a1.05 1.05 0 01-.746-1.03v-2.83a3.176 3.176 0 00-.623-1.925l-1.666-2.291a1.047 1.047 0 01.001-1.272zm17.263.93a3.018 3.018 0 10-.005 6.035 3.018 3.018 0 00.005-6.035zm-7.968 4.213a1.092 1.092 0 00.62 1.715 1.093 1.093 0 001.145-.423l7.544-10.305a1.094 1.094 0 10-1.765-1.293l-7.544 10.306zm-1.675-7.82a3.018 3.018 0 106.036.003 3.018 3.018 0 00-6.036-.003zm-8.599 6.323h-7.769a1.356 1.356 0 100 2.711h8.848v-.87a1.017 1.017 0 00-.206-.64l-.873-1.201z" fill="#55CA83"/></svg>