<svg xmlns="http://www.w3.org/2000/svg" width="70" height="70" viewBox="0 0 70 70" fill="none"><path d="M57.969 48.125a9.8 9.8 0 00-6.14 2.157l-6.811-6.81a13.065 13.065 0 003.076-7.862l13.392-.5a3.294 3.294 0 10-.07-2.188l-13.395.495a13.112 13.112 0 00-5.76-9.353l3.158-5.745a5.49 5.49 0 10-1.916-1.053l-3.161 5.748a13.076 13.076 0 00-13.813 1.969l-6.81-6.812a9.856 9.856 0 10-1.547 1.546l6.81 6.812A13.065 13.065 0 0021.875 35c.003.786.076 1.57.219 2.342L10.35 40.504a4.346 4.346 0 10.588 2.152v-.043l11.733-3.16a13.143 13.143 0 005.512 6.745l-3.295 6.588a6.6 6.6 0 101.954.984l3.294-6.588a13.08 13.08 0 0013.344-2.164l6.81 6.81a9.843 9.843 0 107.679-3.703zM17.5 17.5H6.562a5.469 5.469 0 015.47-5.469 3.282 3.282 0 110-6.563 3.282 3.282 0 010 6.563 5.468 5.468 0 015.468 5.47zM35 26.25A4.375 4.375 0 1135 35a4.375 4.375 0 010-8.75zm-6.563 16.406a6.563 6.563 0 1113.125 0H28.438zM52.5 63.438a5.469 5.469 0 015.469-5.47 3.282 3.282 0 110-6.562 3.282 3.282 0 010 6.563 5.468 5.468 0 015.468 5.469H52.5z" fill="#55CA83"/></svg>