<svg xmlns="http://www.w3.org/2000/svg" width="70" height="70" viewBox="0 0 70 70" fill="none"><path d="M16.114 39.331c-.044.496-.073.992-.073 1.503v3.106c-.13.306-.262.627-.364.948A50.286 50.286 0 0014 51.042H7.29a5.834 5.834 0 01-5.833-5.833v-4.375a10.216 10.216 0 017.292-9.786v1.765a6.573 6.573 0 006.562 6.562c.268 0 .536-.014.802-.044zm6.067-20.416a18.94 18.94 0 01-9.713-3.471 1.44 1.44 0 00-1.18-.277 10.17 10.17 0 00-4.96 2.99c-.728-2.407-.976-6.126 3.413-8.094a9.074 9.074 0 0112.44-.452 9.039 9.039 0 00-.744 2.012 12.073 12.073 0 00.744 7.292z" fill="#55CA83"/><path d="M18.215 33.177c-.576.93-1.04 1.923-1.386 2.96a3.77 3.77 0 01-1.517.321 3.624 3.624 0 01-3.63-3.543 8.348 8.348 0 003.178.627h.905a8.588 8.588 0 002.45-.365zM11.31 18.204a6.719 6.719 0 00-4.003 3.915 8.005 8.005 0 002.333 5.508l1.432 1.432a5.343 5.343 0 003.78 1.566h.919a5.344 5.344 0 003.78-1.566l1.432-1.432a8.02 8.02 0 002.35-5.672v-.08a22.42 22.42 0 01-12.023-3.67zm57.23 22.63v4.374a5.833 5.833 0 01-5.833 5.834H56a50.28 50.28 0 00-1.677-6.154 10.31 10.31 0 00-.365-.948v-3.107c0-.51-.029-1.006-.073-1.502.267.03.534.044.802.044a6.573 6.573 0 006.563-6.562v-1.765a10.215 10.215 0 017.292 9.785zm-5.162-21.89l-.7.014a19.25 19.25 0 01-10.835-3.514 1.44 1.44 0 00-1.182-.277 9.846 9.846 0 00-2.697 1.137c.52-1.88.609-3.854.262-5.775a8.4 8.4 0 01.89-.466 9.11 9.11 0 0112.979 0c3.062 2.727 2.114 6.737 1.283 8.88z" fill="#55CA83"/><path d="M58.319 32.915a3.624 3.624 0 01-3.632 3.543 3.77 3.77 0 01-1.516-.32 14.075 14.075 0 00-1.386-2.96c.795.238 1.62.361 2.45.364h.904a8.35 8.35 0 003.18-.627zm-7.633-14.71a6.72 6.72 0 00-4.004 3.914 8.006 8.006 0 002.334 5.508l1.432 1.432a5.341 5.341 0 003.78 1.566h.919a5.342 5.342 0 003.78-1.566l1.432-1.432a8.02 8.02 0 002.35-5.672v-.08a22.42 22.42 0 01-12.023-3.67zM35 39.374h-4.42a9.974 9.974 0 00-1.998-.933 10.25 10.25 0 00-7.787.54 9.353 9.353 0 00-1.809 1.166 11.649 11.649 0 018.721-10.602v2.537A7.292 7.292 0 0035 39.375zm16.012.773a9.353 9.353 0 00-1.808-1.167 10.05 10.05 0 00-9.785.394h-4.42a7.292 7.292 0 007.292-7.292v-2.537a11.65 11.65 0 018.721 10.602zm-20.874-26.92a1.459 1.459 0 011.322.215 23.221 23.221 0 0012.29 4.075h.712c.994-2.343 2.304-7-1.265-10.102a10.522 10.522 0 00-14.694 0c-5.195 2.704-4.824 7.035-3.792 9.947a11.738 11.738 0 015.427-4.134z" fill="#55CA83"/><path d="M35.5 33.542h-1a8.703 8.703 0 01-3.817-.875 4.352 4.352 0 008.633 0 8.703 8.703 0 01-3.816.875zm8.25-13.108a26.2 26.2 0 01-13.335-4.16 8.295 8.295 0 00-4.165 4.424v.47a8.75 8.75 0 002.562 6.186l1.562 1.562a5.832 5.832 0 004.125 1.709h1a5.833 5.833 0 004.127-1.71l1.561-1.561a8.75 8.75 0 002.563-6.186v-.734zm10.173 36.587a45.46 45.46 0 00-2.36-11.22 7.292 7.292 0 00-9.228-4.596 7.009 7.009 0 00-2.023 1.076H29.687a7.009 7.009 0 00-2.023-1.076 7.292 7.292 0 00-9.228 4.595 45.46 45.46 0 00-2.36 11.22c-.26 4.697.912 7.514 3.481 8.376 2.47.825 4.997-.57 7.52-4.156h15.846c2.053 2.916 4.108 4.386 6.134 4.386.47-.001.939-.079 1.385-.23 2.57-.863 3.74-3.68 3.481-8.375zM43.75 46.658a1.458 1.458 0 110 2.916 1.458 1.458 0 010-2.916zM29.166 52.49h-1.458v1.459a1.458 1.458 0 11-2.917 0V52.49h-1.458a1.459 1.459 0 010-2.916h1.458v-1.459a1.458 1.458 0 112.917 0v1.459h1.458a1.458 1.458 0 110 2.916zm11.667 0a1.459 1.459 0 110-2.917 1.459 1.459 0 010 2.917zm2.917 2.917a1.458 1.458 0 110-2.916 1.458 1.458 0 010 2.916zm2.916-2.917a1.458 1.458 0 110-2.917 1.458 1.458 0 010 2.917z" fill="#55CA83"/></svg>