<svg xmlns="http://www.w3.org/2000/svg" width="70" height="70" viewBox="0 0 70 70" fill="none"><path d="M29.492 14.11a5.867 5.867 0 015.86-5.859h2.028l-.612-1.7a2.345 2.345 0 00-3.007-1.409L13.27 12.6a2.344 2.344 0 00-1.4 3.009l1.083 2.955h16.538V14.11z" fill="#55CA83"/><path d="M35.352 11.768a2.344 2.344 0 00-2.344 2.343v4.453h20.508v-4.453a2.344 2.344 0 00-2.344-2.343h-15.82zm24.375 40.605h-8.204c-4.846 0-8.789-3.943-8.789-8.789s3.943-8.79 8.79-8.79h8.203v-8.026a4.688 4.688 0 00-4.688-4.688H9.687A4.688 4.688 0 005 26.768v33.545a4.688 4.688 0 004.688 4.688h45.351a4.688 4.688 0 004.688-4.688v-7.94z" fill="#55CA83"/><path d="M63.242 38.31H51.523a5.28 5.28 0 00-5.273 5.274 5.28 5.28 0 005.273 5.273h11.72A1.76 1.76 0 0065 47.1v-7.032a1.76 1.76 0 00-1.758-1.758zm-11.719 7.032a1.758 1.758 0 110-3.516 1.758 1.758 0 010 3.516z" fill="#55CA83"/></svg>