<svg xmlns="http://www.w3.org/2000/svg" width="70" height="70" viewBox="0 0 70 70" fill="none"><path fill-rule="evenodd" clip-rule="evenodd" d="M35.796 9.436a24.344 24.344 0 00-14.34 4.088 24.352 24.352 0 00-9.848 13.442c-.433-.053-.952-.03-1.568.145-2.3.653-4.029 2.537-4.806 4.197-1.01 2.163-1.435 5.024-.987 7.976.446 2.944 1.69 5.37 3.245 6.877 1.56 1.508 3.322 1.998 5.072 1.63 2.606-.556 3.898-.972 3.533-3.399L14.33 32.624a20.692 20.692 0 019.167-16.05 20.68 20.68 0 0124.099.79 20.688 20.688 0 018.07 15.287l-1.236 8.232a20.681 20.681 0 01-17.487 13.502h-5.262a2.447 2.447 0 00-2.452 2.45v1.293a2.446 2.446 0 002.452 2.45h6.635a2.442 2.442 0 002.446-2.45v-.676A24.429 24.429 0 0055.31 47.227l2.126.564c1.73.449 3.512-.123 5.071-1.63 1.556-1.507 2.799-3.933 3.245-6.877.451-2.953.013-5.809-.984-7.976-1.001-2.168-2.492-3.545-4.214-4.039-.72-.207-1.503-.284-2.174-.303a24.336 24.336 0 00-22.584-17.53z" fill="#55CA83"/><path fill-rule="evenodd" clip-rule="evenodd" d="M43.563 30.606a3.182 3.182 0 013.179 3.18 3.185 3.185 0 01-3.18 3.18 3.184 3.184 0 01-3.184-3.18 3.183 3.183 0 013.184-3.18h.001zm-8.563 0a3.18 3.18 0 11-.003 6.358A3.18 3.18 0 0135 30.606zm-8.561 0a3.18 3.18 0 110 6.36 3.18 3.18 0 010-6.36zm8.56-13.66c-9.325 0-16.84 7.267-16.84 16.839 0 4.597 1.739 8.66 4.57 11.642l-1.005 4.505c-.33 1.482.697 2.48 2.03 1.737l4.399-2.454A17.139 17.139 0 0035 50.626c9.328 0 16.839-7.263 16.839-16.839 0-9.573-7.51-16.84-16.84-16.84v-.002z" fill="#55CA83"/></svg>